HIERARCHY
ROOT hip
{
  OFFSET 0 0 0
  CHANNELS 6 Xposition Yposition Zposition Zrotation Yrotation Xrotation
  JOINT abdomen
  {
    OFFSET 0 20.6881 -0.73152
    CHANNELS 3 Zrotation Xrotation Yrotation
    JOINT chest
    {
      OFFSET 0 11.7043 -0.48768
      CHANNELS 3 Zrotation Xrotation Yrotation
      JOINT neck
      {
        OFFSET 0 22.1894 -2.19456
        CHANNELS 3 Zrotation Xrotation Yrotation
        JOINT head
        {
          OFFSET -0.24384 7.07133 1.2192
          CHANNELS 3 Zrotation Xrotation Yrotation
          JOINT leftEye
          {
            OFFSET 4.14528 8.04674 8.04672
            CHANNELS 3 Zrotation Xrotation Yrotation
            End Site
            {
              OFFSET 1 0 0
            }
          }
          JOINT rightEye
          {
            OFFSET -3.6576 8.04674 8.04672
            CHANNELS 3 Zrotation Xrotation Yrotation
            End Site
            {
              OFFSET 1 0 0
            }
          }
        }
      }
      JOINT rCollar
      {
        OFFSET -2.68224 19.2634 -4.8768
        CHANNELS 3 Zrotation Xrotation Yrotation
        JOINT rShldr
        {
          OFFSET -8.77824 -1.95073 1.46304
          CHANNELS 3 Zrotation Xrotation Yrotation
          JOINT rForeArm
          {
            OFFSET -28.1742 -1.7115 0.48768
            CHANNELS 3 Zrotation Xrotation Yrotation
            JOINT rHand
            {
              OFFSET -22.5879 0.773209 7.07136
              CHANNELS 3 Zrotation Xrotation Yrotation
              JOINT rThumb1
              {
                OFFSET -1.2192 -0.487915 3.41376
                CHANNELS 3 Zrotation Xrotation Yrotation
                JOINT rThumb2
                {
                  OFFSET -3.37035 -0.52449 3.41376
                  CHANNELS 3 Zrotation Xrotation Yrotation
                  End Site
                  {
                    OFFSET -1.78271 -1.18214 1.43049
                  }
                }
              }
              JOINT rIndex1
              {
                OFFSET -7.75947 0.938293 5.60832
                CHANNELS 3 Zrotation Xrotation Yrotation
                JOINT rIndex2
                {
                  OFFSET -2.54057 -0.884171 1.56538
                  CHANNELS 3 Zrotation Xrotation Yrotation
                  End Site
                  {
                    OFFSET -1.62519 -0.234802 1.16502
                  }
                }
              }
              JOINT rMid1
              {
                OFFSET -8.24714 1.18213 3.41376
                CHANNELS 3 Zrotation Xrotation Yrotation
                JOINT rMid2
                {
                  OFFSET -3.10165 -0.590103 1.0647
                  CHANNELS 3 Zrotation Xrotation Yrotation
                  End Site
                  {
                    OFFSET -2.48547 -0.328903 0.83742
                  }
                }
              }
              JOINT rRing1
              {
                OFFSET -8.82822 0.546677 1.51678
                CHANNELS 3 Zrotation Xrotation Yrotation
                JOINT rRing2
                {
                  OFFSET -2.60934 -0.819778 -0.0198488
                  CHANNELS 3 Zrotation Xrotation Yrotation
                  End Site
                  {
                    OFFSET -2.33842 -0.294052 0.168128
                  }
                }
              }
              JOINT rPinky1
              {
                OFFSET -8.27202 -0.0477905 -0.4584
                CHANNELS 3 Zrotation Xrotation Yrotation
                JOINT rPinky2
                {
                  OFFSET -1.82734 -0.647385 -0.700984
                  CHANNELS 3 Zrotation Xrotation Yrotation
                  End Site
                  {
                    OFFSET -1.69225 -0.51767 -0.607171
                  }
                }
              }
            }
          }
        }
      }
      JOINT lCollar
      {
        OFFSET 2.68224 19.2634 -4.8768
        CHANNELS 3 Zrotation Xrotation Yrotation
        JOINT lShldr
        {
          OFFSET 8.77824 -1.95073 1.46304
          CHANNELS 3 Zrotation Xrotation Yrotation
          JOINT lForeArm
          {
            OFFSET 28.1742 -1.7115 0.48768
            CHANNELS 3 Zrotation Xrotation Yrotation
            JOINT lHand
            {
              OFFSET 22.5879 0.773209 7.07136
              CHANNELS 3 Zrotation Xrotation Yrotation
              JOINT lThumb1
              {
                OFFSET 1.2192 -0.487915 3.41376
                CHANNELS 3 Zrotation Xrotation Yrotation
                JOINT lThumb2
                {
                  OFFSET 3.37035 -0.52449 3.41376
                  CHANNELS 3 Zrotation Xrotation Yrotation
                  End Site
                  {
                    OFFSET 1.78271 -1.18214 1.43049
                  }
                }
              }
              JOINT lIndex1
              {
                OFFSET 7.75947 0.938293 5.60832
                CHANNELS 3 Zrotation Xrotation Yrotation
                JOINT lIndex2
                {
                  OFFSET 2.54057 -0.884171 1.56538
                  CHANNELS 3 Zrotation Xrotation Yrotation
                  End Site
                  {
                    OFFSET 1.62519 -0.234802 1.16502
                  }
                }
              }
              JOINT lMid1
              {
                OFFSET 8.24714 1.18213 3.41376
                CHANNELS 3 Zrotation Xrotation Yrotation
                JOINT lMid2
                {
                  OFFSET 3.10165 -0.590103 1.0647
                  CHANNELS 3 Zrotation Xrotation Yrotation
                  End Site
                  {
                    OFFSET 2.48547 -0.328903 0.83742
                  }
                }
              }
              JOINT lRing1
              {
                OFFSET 8.82822 0.546677 1.51678
                CHANNELS 3 Zrotation Xrotation Yrotation
                JOINT lRing2
                {
                  OFFSET 2.60934 -0.819778 -0.0198488
                  CHANNELS 3 Zrotation Xrotation Yrotation
                  End Site
                  {
                    OFFSET 2.33842 -0.294052 0.168128
                  }
                }
              }
              JOINT lPinky1
              {
                OFFSET 8.27202 -0.0477905 -0.4584
                CHANNELS 3 Zrotation Xrotation Yrotation
                JOINT lPinky2
                {
                  OFFSET 1.82734 -0.647385 -0.700984
                  CHANNELS 3 Zrotation Xrotation Yrotation
                  End Site
                  {
                    OFFSET 1.69225 -0.51767 -0.607171
                  }
                }
              }
            }
          }
        }
      }
    }
  }
  JOINT rButtock
  {
    OFFSET -8.77824 4.35084 1.2192
    CHANNELS 3 Zrotation Xrotation Yrotation
    JOINT rThigh
    {
      OFFSET 0 -1.70687 -2.19456
      CHANNELS 3 Zrotation Xrotation Yrotation
      JOINT rShin
      {
        OFFSET 0 -36.8199 0.73152
        CHANNELS 3 Zrotation Xrotation Yrotation
        JOINT rFoot
        {
          OFFSET 0.73152 -45.1104 -5.12064
          CHANNELS 3 Zrotation Xrotation Yrotation
          End Site
          {
            OFFSET -1.1221 -3.69964 12.103
          }
        }
      }
    }
  }
  JOINT lButtock
  {
    OFFSET 8.77824 4.35084 1.2192
    CHANNELS 3 Zrotation Xrotation Yrotation
    JOINT lThigh
    {
      OFFSET 0 -1.70687 -2.19456
      CHANNELS 3 Zrotation Xrotation Yrotation
      JOINT lShin
      {
        OFFSET 0 -36.8199 0.73152
        CHANNELS 3 Zrotation Xrotation Yrotation
        JOINT lFoot
        {
          OFFSET -0.73152 -45.1104 -5.12064
          CHANNELS 3 Zrotation Xrotation Yrotation
          End Site
          {
            OFFSET 1.1221 -3.69964 12.103
          }
        }
      }
    }
  }
}
MOTION
Frames:	5
Frame Time:	0.00833333
50.5039 85.0159 -82.3199 0.0 0.0 0.0 0.0404828 0.000270407 0.00114436 0.0111572 0.000489945 0.0019327 3.06342e-16 7.95139e-16 -1.16475e-17 9.10061e-16 9.54166e-15 -3.41661e-17 -0.0 0.0 0.0 -0.0 0.0 0.0 1.9747e-16 7.76503e-19 9.93923e-17 5.14394e-15 -1.61513e-16 9.93923e-16 5.74985e-14 -1.63003e-14 -1.59028e-14 6.32508e-13 1.59276e-14 -1.59028e-14 1.49525e-12 -1.71843e-15 -4.45278e-14 2.57426e-12 -6.36111e-15 -8.98507e-14 1.49685e-12 -7.95139e-16 -5.40694e-14 7.73091 5.47488 0.417314 1.49337e-12 -1.88845e-15 -4.45278e-14 2.90554 0.965183 0.102902 1.49664e-12 -1.68967e-15 -5.1684e-14 10.2786 0.731801 0.0259123 1.49188e-12 -3.97569e-16 -4.45278e-14 2.22167 -0.733487 -0.20892 1.00717e-16 7.76503e-19 -9.93923e-17 1.22231e-15 2.48481e-17 -1.19271e-15 5.45664e-14 1.5704e-14 2.22639e-14 6.34583e-13 -1.55301e-14 -5.08889e-14 1.4969e-12 -7.40582e-16 -6.04305e-14 2.59016e-12 -3.18055e-15 -8.98507e-14 1.49168e-12 -3.97569e-16 -4.45278e-14 -7.73091 5.47488 -0.417314 1.4962e-12 -5.96354e-16 -5.40694e-14 -2.90554 0.965183 -0.102902 1.48812e-12 -6.95746e-16 -5.24792e-14 -10.2786 0.731801 -0.0259123 1.49685e-12 7.95139e-16 -5.40694e-14 -2.22167 -0.733487 0.20892 -2.03217e-16 0.0 -3.88251e-19 0.554632 -3.16496 -0.0436848 -0.00574514 0.179609 -0.0505571 -0.52387 2.98421 0.121167 2.03217e-16 0.0 3.88251e-19 -0.493043 -3.01454 0.0399656 0.00619336 -0.0928802 0.0545633 0.523466 3.10627 -0.123627
51.9185 83.6808 -83.103 6.9122 -1.9277 3.4057 -3.22747 0.974024 -1.30934 0.765725 0.178024 -0.400918 -0.700381 2.01174 -0.0800689 1.18784 -1.72832 0.00316816 -0.0 0.0 0.0 -0.0 0.0 0.0 3.98095e-14 6.62323e-14 -6.00702e-15 19.8304 5.24732 1.57891 -6.63706 -3.72685 9.48046 0.00668414 1.81468 0.254575 -3.0683e-10 6.01595e-10 -2.28945e-10 -5.31556e-10 1.04055e-09 -3.94337e-10 -3.06829e-10 6.01597e-10 -2.28959e-10 7.73091 5.47488 0.417314 -3.06833e-10 6.01598e-10 -2.28947e-10 2.90554 0.965183 0.102902 -3.0683e-10 6.01598e-10 -2.2895e-10 10.2786 0.731801 0.0259123 -3.06833e-10 6.01598e-10 -2.28943e-10 2.22167 -0.733487 -0.20892 3.97016e-14 6.62336e-14 -6.22949e-15 -18.656 5.05381 -6.60696 5.99126 -3.20121 -8.77962 -0.00737703 1.92676 -0.270254 4.97204e-11 2.5656e-10 3.41577e-12 8.65472e-11 4.44814e-10 5.93007e-12 4.97165e-11 2.56562e-10 3.43015e-12 -7.73091 5.47488 -0.417314 4.97204e-11 2.56562e-10 3.42213e-12 -2.90554 0.965183 -0.102902 4.97147e-11 2.56561e-10 3.42348e-12 -10.2786 0.731801 -0.0259123 4.97209e-11 2.56562e-10 3.42024e-12 -2.22167 -0.733487 0.20892 -2.03217e-16 0.0 -3.88251e-19 -2.11007 -11.6576 1.72886 -0.00531452 8.39379 0.0663645 -0.768285 0.839924 -3.36633 2.03217e-16 0.0 3.88251e-19 -2.99762 -2.6015 1.09156 -0.0062005 3.92605 -0.0399554 0.466733 0.0280078 -0.860783
51.8996 83.9283 -82.4516 6.8154 -1.9446 3.5826 -6.6364 2.00669 -2.70333 1.57381 0.358595 -0.829002 -1.45299 4.15618 -0.156931 2.44521 -3.56393 0.0251745 -0.0 0.0 0.0 -0.0 0.0 0.0 8.18964e-14 1.38452e-13 -1.23495e-14 40.4898 10.7918 3.25623 -12.2988 -7.29589 19.5892 -0.00383721 3.73992 0.52553 -6.29174e-10 1.2322e-09 -4.71131e-10 -1.08997e-09 2.13122e-09 -8.11484e-10 -6.29174e-10 1.2322e-09 -4.7115e-10 7.73091 5.47488 0.417314 -6.29176e-10 1.2322e-09 -4.71134e-10 2.90554 0.965183 0.102902 -6.29176e-10 1.2322e-09 -4.71133e-10 10.2786 0.731801 0.0259123 -6.29176e-10 1.2322e-09 -4.71127e-10 2.22167 -0.733487 -0.20892 8.1777e-14 1.38455e-13 -1.25949e-14 -37.1713 10.1191 -13.6725 11.2554 -6.32096 -18.1267 0.0048154 3.9965 -0.56162 1.00656e-10 5.46256e-10 1.62697e-11 1.75267e-10 9.47205e-10 2.82173e-11 1.00653e-10 5.46259e-10 1.62827e-11 -7.73091 5.47488 -0.417314 1.00657e-10 5.46261e-10 1.62761e-11 -2.90554 0.965183 -0.102902 1.00653e-10 5.46259e-10 1.62772e-11 -10.2786 0.731801 -0.0259123 1.00657e-10 5.46259e-10 1.62721e-11 -2.22167 -0.733487 0.20892 -2.03217e-16 0.0 -3.88251e-19 -4.31661 -20.6102 3.73226 -0.0431883 17.1975 0.199138 -1.30972 -1.42772 -7.02309 2.03217e-16 0.0 3.88251e-19 -5.66382 -2.23738 2.20788 -0.00469526 8.26945 -0.142686 0.319638 -3.26529 -1.63846
51.957 84.1188 -81.7898 7.0239 -1.7885 3.6286 -9.6297 2.91542 -3.93484 2.28235 0.532987 -1.20666 -2.0842 6.03517 -0.241397 3.5641 -5.18495 0.00953918 -0.0 0.0 0.0 -0.0 0.0 0.0 1.19033e-13 1.98695e-13 -1.82199e-14 58.5963 15.6932 4.89994 -16.3341 -9.9577 28.8552 -0.0285102 5.4436 0.766801 -9.23482e-10 1.80479e-09 -6.86746e-10 -1.59982e-09 3.12168e-09 -1.18283e-09 -9.23482e-10 1.80479e-09 -6.86769e-10 7.73091 5.47488 0.417314 -9.23484e-10 1.8048e-09 -6.86751e-10 2.90554 0.965183 0.102902 -9.23484e-10 1.8048e-09 -6.86746e-10 10.2786 0.731801 0.0259123 -9.23483e-10 1.80479e-09 -6.86741e-10 2.22167 -0.733487 -0.20892 1.18903e-13 1.98699e-13 -1.84897e-14 -52.4555 14.3452 -20.4067 15.1177 -8.70331 -26.6278 0.0326332 5.77976 -0.814444 1.46168e-10 7.69681e-10 1.03682e-11 2.54461e-10 1.33445e-09 1.79699e-11 1.46166e-10 7.69685e-10 1.03795e-11 -7.73091 5.47488 -0.417314 1.46169e-10 7.69687e-10 1.03745e-11 -2.90554 0.965183 -0.102902 1.46168e-10 7.69685e-10 1.03754e-11 -10.2786 0.731801 -0.0259123 1.46169e-10 7.69684e-10 1.03689e-11 -2.22167 -0.733487 0.20892 -2.03217e-16 0.0 -3.88251e-19 -5.67484 -28.5313 5.88338 -0.112942 24.8218 0.328415 -2.03687 -3.3883 -10.3582 2.03217e-16 0.0 3.88251e-19 -8.05226 -1.77408 3.19303 0.00944504 11.9638 -0.23379 0.114707 -6.12341 -2.34887
52.0628 84.28 -81.1192 7.3521 -1.4651 3.5988 -11.6805 3.52036 -4.75567 2.73717 0.692026 -1.45824 -2.42149 7.25057 -0.34395 4.33109 -6.26947 -0.100689 -0.0 0.0 0.0 -0.0 0.0 0.0 1.43796e-13 2.28997e-13 -2.29099e-14 70.9325 19.0278 6.31128 -18.7108 -11.4719 35.635 -0.0536232 6.59381 0.930853 -1.1477e-09 2.23237e-09 -8.35932e-10 -1.98823e-09 3.86157e-09 -1.43968e-09 -1.1477e-09 2.23237e-09 -8.35958e-10 7.73091 5.47488 0.417314 -1.1477e-09 2.23238e-09 -8.35939e-10 2.90554 0.965183 0.102902 -1.1477e-09 2.23238e-09 -8.35932e-10 10.2786 0.731801 0.0259123 -1.1477e-09 2.23237e-09 -8.35926e-10 2.22167 -0.733487 -0.20892 1.43656e-13 2.29002e-13 -2.32081e-14 -62.014 17.1803 -25.7933 17.4257 -10.0821 -32.744 0.0578526 6.84738 -0.96699 1.78121e-10 8.27428e-10 -4.24222e-11 3.09844e-10 1.43382e-09 -7.36139e-11 1.7812e-10 8.27432e-10 -4.24127e-11 -7.73091 5.47488 -0.417314 1.78122e-10 8.27434e-10 -4.24159e-11 -2.90554 0.965183 -0.102902 1.78122e-10 8.27432e-10 -4.24151e-11 -10.2786 0.731801 -0.0259123 1.78123e-10 8.27431e-10 -4.24222e-11 -2.22167 -0.733487 0.20892 -2.03217e-16 0.0 -3.88251e-19 -6.15428 -33.9658 7.87532 -0.177002 29.4979 0.418283 -2.68137 -4.64585 -12.862 2.03217e-16 0.0 3.88251e-19 -9.7264 -1.06403 3.8513 0.0237905 14.0358 -0.290307 -0.063133 -7.89876 -2.87402
